<svg width="32" height="29" viewBox="0 0 32 29" fill="none" xmlns="http://www.w3.org/2000/svg">
<path d="M23.6737 0.731855C23.6667 0.729355 23.6601 0.726856 23.6537 0.724355C23.6487 0.722765 23.6442 0.720947 23.6401 0.719356C20.658 -0.29627 17.5034 -0.234659 14.758 0.892757C11.9765 2.03451 9.94571 4.12918 9.03987 6.79091C8.90601 7.18385 9.116 7.61088 9.50962 7.74475C9.52507 7.75021 9.54121 7.75134 9.5562 7.75589C9.57075 7.7618 9.5837 7.76998 9.5987 7.77543C9.99209 7.9102 10.4187 7.6993 10.5525 7.30569C10.6494 7.01888 11.9159 6.72367 13.6372 7.30978C14.4507 7.58703 15.1839 8.00496 15.6496 8.45764C15.9052 8.70581 16.0221 8.90876 16.0641 9.04467C16.0575 9.17352 16.0425 9.29988 16.0425 9.43055C16.0425 9.44055 16.045 9.44964 16.0455 9.45919C16.0455 9.4676 16.0446 9.47623 16.045 9.48419C16.0459 9.50032 16.0509 9.51578 16.053 9.53123C16.0564 9.55668 16.06 9.58236 16.0655 9.60691C16.0709 9.6285 16.078 9.64895 16.0855 9.67009C16.0939 9.69554 16.1025 9.72076 16.1136 9.74417C16.1227 9.76417 16.1341 9.78326 16.1452 9.80235C16.1577 9.82439 16.1702 9.84689 16.1852 9.86757C16.1993 9.88712 16.2152 9.90462 16.2309 9.9228C16.2464 9.94075 16.262 9.95848 16.2795 9.97484C16.297 9.99189 16.317 10.0069 16.3373 10.0226C16.3559 10.0371 16.3743 10.0517 16.3943 10.0642C16.4143 10.0771 16.4359 10.0878 16.4579 10.0987C16.4809 10.1103 16.5041 10.1212 16.5282 10.1303C16.5373 10.1337 16.5443 10.1387 16.5532 10.1419C16.5548 10.1423 16.5557 10.1419 16.5573 10.1423C16.5702 10.1469 16.5838 10.1482 16.5968 10.1519C16.6213 10.1585 16.6459 10.1648 16.6709 10.1689C16.6995 10.1739 16.727 10.176 16.7557 10.1773C16.7657 10.1778 16.7747 10.1798 16.7852 10.1803C16.7886 10.1803 16.7922 10.1819 16.7957 10.1819C16.8007 10.1819 16.8052 10.1798 16.8097 10.1798C16.8122 10.1798 16.8152 10.1794 16.8177 10.1794C16.8484 10.1785 16.8772 10.1748 16.907 10.1703C16.927 10.1673 16.947 10.1648 16.9672 10.1598C16.9818 10.1564 16.9968 10.1528 17.0113 10.1487C17.0234 10.1446 17.035 10.1391 17.047 10.1351C17.067 10.128 17.0865 10.121 17.1056 10.1126C17.1297 10.1014 17.1522 10.0885 17.1754 10.0751C17.1904 10.066 17.207 10.0585 17.2215 10.048C17.227 10.0446 17.232 10.0405 17.237 10.0369C17.257 10.0223 17.2745 10.0053 17.2931 9.9887C17.3081 9.97507 17.3243 9.96211 17.3381 9.94711C17.3527 9.93212 17.3668 9.91553 17.3797 9.89848C17.3881 9.88803 17.3959 9.87848 17.4038 9.86735C17.4122 9.85576 17.4204 9.84439 17.4283 9.83167C17.4424 9.80962 17.4545 9.78553 17.4665 9.76144C17.477 9.74031 17.487 9.71986 17.4956 9.69827C17.499 9.68918 17.504 9.68213 17.5068 9.67327C17.5072 9.67281 17.5077 9.67236 17.5077 9.67168C17.592 9.42601 18.5363 9.17943 19.8839 9.47919C19.8564 9.52487 19.8323 9.5735 19.8148 9.62554L15.4442 22.465C15.4342 22.4945 15.4296 22.5241 15.4237 22.5543H6.1663L1.39408 14.7229C1.17796 14.3679 0.715483 14.2556 0.360942 14.4718C0.00595838 14.6883 -0.106303 15.1504 0.110273 15.5054L4.86795 23.3141L2.60032 27.165C2.38988 27.5229 2.50851 27.9836 2.86644 28.1945C2.98621 28.2652 3.11756 28.2983 3.24733 28.2983C3.50505 28.2983 3.75549 28.1661 3.89591 27.9279L6.17349 24.06H23.5852L25.8628 27.9279C26.0032 28.1665 26.2537 28.2983 26.5114 28.2983C26.6411 28.2983 26.7725 28.2652 26.8923 28.1945C27.2502 27.9834 27.3695 27.5229 27.1588 27.165L24.6633 22.9266C24.6592 22.9195 24.6537 22.915 24.6503 22.9086C24.6358 22.8857 24.6192 22.865 24.6026 22.8439C24.588 22.8252 24.5739 22.8073 24.5585 22.7907C24.5414 22.7727 24.5224 22.757 24.5039 22.7405C24.486 22.725 24.4683 22.7089 24.4494 22.6955C24.429 22.6809 24.4062 22.6689 24.3842 22.6564C24.3646 22.6452 24.3455 22.6334 24.3246 22.6243C24.301 22.6139 24.2765 22.6064 24.2519 22.5977C24.2299 22.5902 24.2087 22.5827 24.1867 22.5777C24.1631 22.5723 24.139 22.5693 24.1151 22.5661C24.089 22.5627 24.0635 22.5591 24.0378 22.5586C24.0299 22.5582 24.0233 22.5561 24.0153 22.5561H17.0019L21.2378 10.1123C21.2553 10.0596 21.2665 10.0066 21.2724 9.9539C22.5244 10.5389 23.1209 11.3113 23.0377 11.5563C22.9039 11.9492 23.1139 12.3763 23.5075 12.5102C23.5807 12.5352 23.6538 12.5442 23.727 12.5467C23.735 12.5467 23.742 12.5508 23.75 12.5508C23.7559 12.5508 23.7611 12.5483 23.767 12.5483C23.8361 12.5467 23.9029 12.5367 23.9679 12.5167C23.9784 12.5138 23.9875 12.5088 23.9975 12.5056C24.0565 12.4845 24.1127 12.457 24.165 12.4224C24.1734 12.417 24.1815 12.4129 24.19 12.4074C24.21 12.3929 24.2281 12.3758 24.2465 12.3593C24.3427 12.3006 24.4295 12.2229 24.4943 12.1202C24.5399 12.0479 24.579 11.9759 24.622 11.9036C24.7488 11.8325 24.9467 11.7613 25.251 11.7261C25.8962 11.652 26.7328 11.7677 27.5456 12.0449C29.2664 12.6303 30.0889 13.6374 29.9921 13.9242C29.8582 14.3171 30.0687 14.7446 30.4623 14.8776C30.4734 14.8816 30.4843 14.8801 30.4955 14.883C30.5141 14.8914 30.5312 14.9016 30.5507 14.9085C30.6309 14.9355 30.7125 14.9485 30.7927 14.9485C31.1059 14.9485 31.3981 14.751 31.5045 14.4383C33.3587 8.99174 29.8471 2.85139 23.6742 0.731939L23.6737 0.731855ZM14.1214 5.88591C13.1185 5.54456 12.1601 5.42025 11.3495 5.48752C12.2703 4.09257 13.63 2.98129 15.3284 2.28362C17.0842 1.56272 19.0379 1.34682 20.9892 1.62753C19.0625 2.74724 17.1719 4.68645 16.4044 7.13112C15.7981 6.62683 15.0091 6.18822 14.1214 5.88598V5.88591ZM21.0761 8.25326C19.8234 7.82669 18.6401 7.73805 17.7287 7.941C18.456 4.9957 21.2054 2.98737 23.0362 2.32722C23.9784 4.13256 24.8847 7.19125 23.8703 9.98935C23.268 9.29552 22.2951 8.66852 21.0761 8.25353L21.0761 8.25326ZM28.0302 10.6206C27.1163 10.3093 26.1982 10.1765 25.3916 10.2172C26.3064 7.44238 25.6369 4.69321 24.9471 2.92568C28.554 4.85785 30.7218 8.44172 30.4686 11.9952C29.8675 11.4477 29.0325 10.962 28.0301 10.6207L28.0302 10.6206Z" fill="black"/>
</svg>
