<svg width="32" height="21" viewBox="0 0 32 21" fill="none" xmlns="http://www.w3.org/2000/svg">
<path d="M6.92767 17.6021C6.87524 17.6545 6.79915 17.6778 6.75253 17.6778C6.70592 17.6778 6.62401 17.6545 6.57739 17.6021C6.47834 17.503 6.47834 17.3512 6.57739 17.246C8.10049 15.7229 8.10049 13.2658 6.57739 11.7422C6.47834 11.6432 6.47834 11.4914 6.57739 11.3861C6.67645 11.2871 6.82828 11.2871 6.9335 11.3861C8.65542 13.1084 8.65542 15.9038 6.92767 17.6021ZM5.83635 12.122C5.7373 12.023 5.58547 12.023 5.48025 12.122C5.37503 12.2211 5.3812 12.3729 5.48025 12.4781C6.01149 13.0094 6.31481 13.7446 6.31481 14.5092C6.31481 15.268 6.01149 15.9799 5.48025 16.5402C5.3812 16.6393 5.3812 16.7911 5.48025 16.8963C5.53269 16.9487 5.60877 16.9721 5.65539 16.9721C5.702 16.9721 5.78391 16.9487 5.83053 16.8963C6.46665 16.2602 6.82279 15.4256 6.82279 14.5091C6.82862 13.6159 6.47246 12.7582 5.83635 12.122ZM4.74503 12.8572C4.64598 12.7582 4.49414 12.7582 4.38893 12.8572C4.28987 12.9563 4.28987 13.1081 4.38893 13.2133C4.74503 13.5694 4.92017 14.0246 4.92017 14.5089C4.92017 14.9932 4.74503 15.4487 4.38893 15.8045C4.28987 15.9035 4.28987 16.0554 4.38893 16.1606C4.44136 16.213 4.51745 16.2363 4.56406 16.2363C4.61068 16.2363 4.69259 16.213 4.7392 16.1606C5.17106 15.7287 5.42193 15.1451 5.42193 14.509C5.43359 13.8728 5.17687 13.2892 4.74503 12.8573V12.8572ZM3.30345 13.5927C3.2044 13.6918 3.2044 13.8436 3.30345 13.9488C3.60677 14.2522 3.60677 14.7601 3.30345 15.0634C3.2044 15.1625 3.2044 15.3143 3.30345 15.4195C3.35589 15.472 3.43197 15.4953 3.47859 15.4953C3.5252 15.4953 3.60711 15.472 3.65373 15.4195C4.16132 14.9119 4.16132 14.1007 3.65373 13.5927C3.55433 13.4934 3.4025 13.4933 3.30345 13.5927ZM32 1.71612V18.5712C32 19.5052 31.2179 20.2869 30.2842 20.2869H1.71577C0.781772 20.2869 0 19.5048 0 18.5712V1.71612C0 0.782114 0.782132 0.000342738 1.71577 0.000342738L30.2316 0C31.2176 0 31.9997 0.776305 31.9997 1.71612L32 1.71612ZM1.03885 1.71612V4.6808H30.9024V1.71612C30.9024 1.35418 30.5932 1.03921 30.2255 1.03921L1.71579 1.03887C1.35386 1.03887 1.03885 1.34835 1.03885 1.71612ZM30.955 18.5712V9.21007H1.03885V18.5773C1.03885 18.9392 1.348 19.2542 1.71576 19.2542H30.2316C30.6459 19.2484 30.9551 18.9392 30.9551 18.5715L30.955 18.5712Z" fill="black"/>
</svg>
