<svg width="32" height="31" viewBox="0 0 32 31" fill="none" xmlns="http://www.w3.org/2000/svg">
<path fill-rule="evenodd" clip-rule="evenodd" d="M6.63124 0H5.74214V0.889096V6.78673L0.566188 8.80434L0 9.02504V9.63272V29.902V30.7911H0.889096H31.1109H32V29.902V9.63272V9.01364L31.4194 8.79885L25.95 6.77555L25.9556 0.889944L25.9565 0H25.0665H6.63124ZM2.70915 9.87751L5.74214 8.69524V12.1313L2.70915 9.87751ZM12.9037 17.4531L7.52034 13.4527V7.39441V1.77819H24.1766L24.1712 7.39356L24.1655 13.4382L18.4853 17.4399L15.6109 19.4649L12.9037 17.4531ZM29.2164 9.87985L25.9449 12.1846L25.9482 8.67085L29.2164 9.87985ZM25.5662 14.6266L30.2218 11.3467V27.8028L20.3871 18.2752L25.5662 14.6266ZM18.9075 19.3176L28.9154 29.0129H3.00317L12.466 19.3433L15.0667 21.2759L15.5831 21.6596L16.1091 21.2891L18.9075 19.3176ZM1.77819 11.4011V27.7223L11.0255 18.2728L6.10094 14.6134L1.77819 11.4011ZM12.0034 6.73791H20.4164V4.95971H12.0034V6.73791ZM20.4164 9.54225H12.0034V7.76406H20.4164V9.54225ZM12.0034 12.3466H20.4164V10.5684H12.0034V12.3466Z" fill="black"/>
</svg>
