<svg width="32" height="31" viewBox="0 0 32 31" fill="none" xmlns="http://www.w3.org/2000/svg">
<path d="M1.0927 30.426H21.8386C22.4519 30.426 22.9319 29.9727 22.9319 29.4127V22.7729L31.2247 14.4801C31.7046 14.0002 31.9713 13.3868 31.998 12.7202C32.0247 12.0536 31.7847 11.4403 31.3313 10.9603C30.9047 10.5337 30.318 10.2937 29.6781 10.2937C29.0114 10.2937 28.3182 10.587 27.8381 11.067L16.5857 22.3462C15.599 23.3329 15.4391 24.8528 15.4391 25.7327L14.2925 25.5994L14.0525 24.4261C14.0259 24.2395 13.8926 24.1061 13.7059 24.0261C13.5192 23.9728 13.3326 23.9995 13.1993 24.1061L12.6926 24.5328L12.9593 22.7995C12.9859 22.5595 12.8526 22.3195 12.6393 22.2395C12.3993 22.1329 12.1593 22.2129 11.9993 22.3995L9.06614 26.026C8.87948 26.266 8.90615 26.586 9.14614 26.7726C9.2528 26.8526 9.35946 26.8793 9.49278 26.8793C9.65278 26.8793 9.81277 26.7993 9.91943 26.6926L11.626 24.5861L11.466 25.7327C11.4394 25.946 11.546 26.1593 11.7327 26.266C11.9193 26.3726 12.1593 26.346 12.3459 26.2127L13.2259 25.4927L13.3593 26.1594C13.4126 26.3727 13.5992 26.5594 13.8126 26.586L15.9458 26.826C15.9725 26.826 16.2391 26.8527 16.6124 26.8527C17.439 26.8527 18.9857 26.6927 19.9989 25.7061L21.8921 23.8129V29.3326H21.8655H1.09334H1.06667V1.06737H1.09334H21.8392H21.8659V14.1068C21.8659 14.4002 22.1059 14.6402 22.3992 14.6402C22.6925 14.6402 22.9325 14.4002 22.9325 14.1068V1.01434C22.9325 0.45437 22.4525 0.00106049 21.8392 0.00106049H1.09331C0.480036 -0.0256048 0 0.45437 0 1.01434V29.3862C0 29.9462 0.479975 30.4261 1.09331 30.4261L1.0927 30.426ZM22.0251 22.16L19.5986 24.5866L17.7054 22.6934L28.2118 12.1869L30.105 14.0801L22.0251 22.16ZM30.5848 11.7341C30.8248 11.9741 30.9581 12.3207 30.9315 12.694C30.9315 12.9073 30.8781 13.094 30.7715 13.2807L29.0116 11.5207C29.2249 11.4141 29.4382 11.3608 29.6515 11.3608C30.0248 11.3874 30.3448 11.5207 30.5848 11.7341H30.5848ZM16.4787 25.8133C16.4787 25.2534 16.5321 24.2668 16.9854 23.5201L18.7719 25.3067C18.0253 25.7866 17.0386 25.84 16.4787 25.8133L16.4787 25.8133Z" fill="black"/>
<path d="M18.2652 8.05396H4.66616C4.37285 8.05396 4.13286 8.29394 4.13286 8.58726C4.13286 8.88058 4.37285 9.12057 4.66616 9.12057H18.2652C18.5585 9.12057 18.7985 8.88058 18.7985 8.58726C18.7985 8.29394 18.5585 8.05396 18.2652 8.05396Z" fill="black"/>
<path d="M18.2652 10.9338H4.66616C4.37285 10.9338 4.13286 11.1738 4.13286 11.4671C4.13286 11.7605 4.37285 12.0004 4.66616 12.0004H18.2652C18.5585 12.0004 18.7985 11.7605 18.7985 11.4671C18.7985 11.1738 18.5585 10.9338 18.2652 10.9338Z" fill="black"/>
<path d="M18.2652 13.5735H4.66616C4.37285 13.5735 4.13286 13.8135 4.13286 14.1068C4.13286 14.4001 4.37285 14.6401 4.66616 14.6401H18.2652C18.5585 14.6401 18.7985 14.4001 18.7985 14.1068C18.7985 13.8135 18.5585 13.5735 18.2652 13.5735Z" fill="black"/>
<path d="M18.2652 16.2401H4.66616C4.37285 16.2401 4.13286 16.48 4.13286 16.7734C4.13286 17.0667 4.37285 17.3067 4.66616 17.3067H18.2652C18.5585 17.3067 18.7985 17.0667 18.7985 16.7734C18.7985 16.48 18.5585 16.2401 18.2652 16.2401Z" fill="black"/>
<path d="M18.2652 18.7469H4.66616C4.37285 18.7469 4.13286 18.9869 4.13286 19.2802C4.13286 19.5735 4.37285 19.8135 4.66616 19.8135H18.2652C18.5585 19.8135 18.7985 19.5735 18.7985 19.2802C18.7985 18.9869 18.5585 18.7469 18.2652 18.7469Z" fill="black"/>
</svg>
